<svg width="21" height="21" viewBox="0 0 21 21" fill="none" xmlns="http://www.w3.org/2000/svg">
<mask id="path-1-outside-1_13_338" maskUnits="userSpaceOnUse" x="0" y="0" width="21" height="21" fill="black">
<rect fill="white" width="21" height="21"/>
<path d="M19.3874 7.14381C20.1563 9.17978 20.2028 11.418 19.5191 13.4841C18.8355 15.5503 17.4632 17.3191 15.6318 18.4947C13.8003 19.6703 11.6207 20.1814 9.45757 19.9426C7.2944 19.7038 5.27882 18.7296 3.7479 17.1828C2.21699 15.6359 1.26357 13.6104 1.04711 11.4449C0.830646 9.27939 1.36426 7.10521 2.55871 5.28598C3.75317 3.46676 5.53602 2.11279 7.60912 1.45054C9.68221 0.788279 11.9198 0.857886 13.9478 1.64771L13.5019 2.79255C11.7362 2.10487 9.78797 2.04426 7.98299 2.62087C6.178 3.19748 4.62571 4.37634 3.58573 5.96029C2.54576 7.54425 2.08115 9.43725 2.26962 11.3227C2.45809 13.2082 3.2882 14.9717 4.62113 16.3185C5.95405 17.6653 7.70897 18.5135 9.59238 18.7214C11.4758 18.9294 13.3735 18.4843 14.9681 17.4608C16.5627 16.4372 17.7575 14.8972 18.3527 13.0982C18.9479 11.2993 18.9074 9.35052 18.238 7.57786L19.3874 7.14381Z"/>
</mask>
<path d="M19.3874 7.14381C20.1563 9.17978 20.2028 11.418 19.5191 13.4841C18.8355 15.5503 17.4632 17.3191 15.6318 18.4947C13.8003 19.6703 11.6207 20.1814 9.45757 19.9426C7.2944 19.7038 5.27882 18.7296 3.7479 17.1828C2.21699 15.6359 1.26357 13.6104 1.04711 11.4449C0.830646 9.27939 1.36426 7.10521 2.55871 5.28598C3.75317 3.46676 5.53602 2.11279 7.60912 1.45054C9.68221 0.788279 11.9198 0.857886 13.9478 1.64771L13.5019 2.79255C11.7362 2.10487 9.78797 2.04426 7.98299 2.62087C6.178 3.19748 4.62571 4.37634 3.58573 5.96029C2.54576 7.54425 2.08115 9.43725 2.26962 11.3227C2.45809 13.2082 3.2882 14.9717 4.62113 16.3185C5.95405 17.6653 7.70897 18.5135 9.59238 18.7214C11.4758 18.9294 13.3735 18.4843 14.9681 17.4608C16.5627 16.4372 17.7575 14.8972 18.3527 13.0982C18.9479 11.2993 18.9074 9.35052 18.238 7.57786L19.3874 7.14381Z" fill="#FF4C51"/>
<path d="M19.3874 7.14381C20.1563 9.17978 20.2028 11.418 19.5191 13.4841C18.8355 15.5503 17.4632 17.3191 15.6318 18.4947C13.8003 19.6703 11.6207 20.1814 9.45757 19.9426C7.2944 19.7038 5.27882 18.7296 3.7479 17.1828C2.21699 15.6359 1.26357 13.6104 1.04711 11.4449C0.830646 9.27939 1.36426 7.10521 2.55871 5.28598C3.75317 3.46676 5.53602 2.11279 7.60912 1.45054C9.68221 0.788279 11.9198 0.857886 13.9478 1.64771L13.5019 2.79255C11.7362 2.10487 9.78797 2.04426 7.98299 2.62087C6.178 3.19748 4.62571 4.37634 3.58573 5.96029C2.54576 7.54425 2.08115 9.43725 2.26962 11.3227C2.45809 13.2082 3.2882 14.9717 4.62113 16.3185C5.95405 17.6653 7.70897 18.5135 9.59238 18.7214C11.4758 18.9294 13.3735 18.4843 14.9681 17.4608C16.5627 16.4372 17.7575 14.8972 18.3527 13.0982C18.9479 11.2993 18.9074 9.35052 18.238 7.57786L19.3874 7.14381Z" stroke="#FF4C51" mask="url(#path-1-outside-1_13_338)"/>
</svg>
